<?xml version="1.0" encoding="UTF-8"?>
<svg id="Layer_1" data-name="Layer 1" xmlns="http://www.w3.org/2000/svg" viewBox="0 0 50 50">
  <defs>
    <style>
      .cls-1 {
        fill: #0aac32;
      }
    </style>
  </defs>
  <path class="cls-1" d="M4.87,29.32c-1.18,0-2.2-.42-3.04-1.27-.84-.84-1.27-1.86-1.27-3.05s.43-2.21,1.27-3.05c.84-.84,1.86-1.27,3.04-1.27s2.21.42,3.05,1.27,1.27,1.86,1.27,3.05-.43,2.21-1.27,3.05c-.84.84-1.86,1.27-3.05,1.27ZM16.37,29.32c-1.19,0-2.21-.42-3.05-1.27-.84-.84-1.26-1.86-1.26-3.05s.42-2.21,1.26-3.05c.84-.84,1.86-1.27,3.05-1.27s2.21.42,3.05,1.27c.84.84,1.26,1.86,1.26,3.05s-.42,2.21-1.26,3.05c-.84.84-1.86,1.27-3.05,1.27ZM27.87,12.04c-1.18,0-2.2-.42-3.04-1.27-.84-.84-1.27-1.86-1.27-3.05s.43-2.21,1.27-3.05c.84-.84,1.86-1.27,3.04-1.27s2.21.42,3.05,1.27c.84.84,1.27,1.86,1.27,3.05s-.43,2.21-1.27,3.05c-.84.84-1.86,1.27-3.05,1.27ZM27.87,29.32c-1.18,0-2.2-.42-3.04-1.27-.84-.84-1.27-1.86-1.27-3.05s.43-2.21,1.27-3.05c.84-.84,1.86-1.27,3.04-1.27s2.21.42,3.05,1.27,1.27,1.86,1.27,3.05-.43,2.21-1.27,3.05c-.84.84-1.86,1.27-3.05,1.27ZM27.87,46.6c-1.18,0-2.2-.42-3.04-1.27-.84-.84-1.27-1.86-1.27-3.05s.43-2.21,1.27-3.05c.84-.84,1.86-1.27,3.04-1.27s2.21.42,3.05,1.27c.84.84,1.27,1.86,1.27,3.05s-.43,2.21-1.27,3.05c-.84.84-1.86,1.27-3.05,1.27ZM36.5,20.69c-1.18,0-2.2-.42-3.04-1.27-.84-.84-1.27-1.86-1.27-3.05s.43-2.21,1.27-3.05c.84-.84,1.86-1.27,3.04-1.27s2.21.42,3.05,1.27c.84.84,1.27,1.86,1.27,3.05s-.43,2.21-1.27,3.05c-.84.84-1.86,1.27-3.05,1.27ZM36.5,37.96c-1.18,0-2.2-.42-3.04-1.27-.84-.84-1.27-1.86-1.27-3.05s.43-2.21,1.27-3.05c.84-.84,1.86-1.27,3.04-1.27s2.21.42,3.05,1.27c.84.84,1.27,1.86,1.27,3.05s-.43,2.21-1.27,3.05c-.84.84-1.86,1.27-3.05,1.27ZM45.13,29.32c-1.19,0-2.21-.42-3.05-1.27-.84-.84-1.27-1.86-1.27-3.05s.43-2.21,1.27-3.05c.84-.84,1.86-1.27,3.05-1.27s2.2.42,3.04,1.27c.84.84,1.27,1.86,1.27,3.05s-.43,2.21-1.27,3.05c-.84.84-1.86,1.27-3.04,1.27Z"/>
</svg>