<?xml version="1.0" encoding="utf-8"?>
<!-- Generator: Adobe Illustrator 17.0.0, SVG Export Plug-In . SVG Version: 6.00 Build 0)  -->
<!DOCTYPE svg PUBLIC "-//W3C//DTD SVG 1.1//EN" "http://www.w3.org/Graphics/SVG/1.1/DTD/svg11.dtd">
<svg version="1.1" id="Layer_1" xmlns="http://www.w3.org/2000/svg" xmlns:xlink="http://www.w3.org/1999/xlink" x="0px" y="0px"
	 width="313.04px" height="74.846px" viewBox="0 0 313.04 74.846" enable-background="new 0 0 313.04 74.846" xml:space="preserve" preserveAspectRatio="none">
<path d="M274.46,1c17.477,0,31.669,8.981,36.157,22.881c6.018,18.641-7.66,39.881-30.49,47.347
	c-5.311,1.737-10.746,2.617-16.152,2.617c-6.262,0-12.399-1.223-17.75-3.538l-0.303-0.131l-0.322,0.075
	c-8.579,2.006-17.718,3.023-27.164,3.023c-14.363,0-28.079-2.366-39.663-6.841l-0.452-0.175l-0.417,0.246l-0.088,0.049
	c-0.049,0.026-0.098,0.053-0.145,0.081c-0.748,0.437-1.445,0.823-2.131,1.181c-0.1,0.052-0.202,0.102-0.304,0.152l-0.26,0.129
	c-0.62,0.314-1.194,0.593-1.755,0.851c-0.263,0.121-0.529,0.238-0.796,0.356l-0.06,0.026c-0.535,0.236-1.077,0.462-1.624,0.682
	l-0.208,0.084c-0.21,0.085-0.419,0.169-0.632,0.25c-0.789,0.301-1.532,0.567-2.27,0.811c-0.045,0.015-0.088,0.031-0.132,0.047
	l-0.065,0.024c-0.197,0.065-0.395,0.123-0.592,0.181l-0.365,0.109l-0.327,0.101c-0.264,0.082-0.529,0.165-0.794,0.24
	c-0.219,0.062-0.437,0.118-0.656,0.174l-0.342,0.088l-0.302,0.08c-0.267,0.071-0.533,0.142-0.8,0.206
	c-0.231,0.055-0.461,0.105-0.691,0.154l-0.311,0.067l-0.26,0.057c-0.279,0.062-0.557,0.124-0.836,0.179
	c-0.24,0.047-0.479,0.089-0.718,0.131l-0.278,0.049l-0.202,0.036c-0.299,0.053-0.597,0.107-0.895,0.153
	c-0.256,0.04-0.512,0.074-0.767,0.108l-0.218,0.029l-0.133,0.018c-0.322,0.044-0.644,0.088-0.965,0.124
	c-0.272,0.031-0.543,0.056-0.814,0.082l-0.159,0.015c-0.368,0.035-0.735,0.07-1.101,0.096c-0.303,0.022-0.604,0.038-0.952,0.057
	c-0.37,0.02-0.74,0.039-1.109,0.05c-0.31,0.01-0.619,0.015-0.928,0.019l-0.29,0.007c-0.119,0.003-0.238,0.007-0.356,0.007
	c-0.061,0-0.121-0.002-0.182-0.004c-0.072-0.002-0.143-0.005-0.215-0.005c-0.457-0.004-0.911-0.017-1.365-0.033l-0.224-0.008
	c-0.22-0.007-0.441-0.015-0.66-0.027c-0.477-0.026-0.949-0.064-1.422-0.104l-0.304-0.024c-0.162-0.012-0.323-0.024-0.484-0.041
	c-0.693-0.07-1.379-0.155-2.04-0.251c-0.136-0.02-0.27-0.043-0.405-0.066l-0.282-0.047c-0.5-0.081-1-0.164-1.493-0.26
	c-0.213-0.042-0.424-0.089-0.635-0.136l-0.313-0.069c-0.375-0.082-0.749-0.163-1.119-0.254c-0.301-0.074-0.597-0.154-0.895-0.235
	l-0.077-0.021c-0.351-0.095-0.7-0.192-1.047-0.295c-0.33-0.098-0.658-0.201-0.984-0.307c-0.33-0.107-0.658-0.219-0.984-0.334
	c-0.328-0.116-0.655-0.232-0.978-0.355c-0.312-0.119-0.618-0.245-0.935-0.375c-0.104-0.043-0.209-0.084-0.315-0.125
	c-0.132-0.052-0.265-0.103-0.394-0.159l-0.303-0.131l-0.322,0.075c-8.578,2.006-17.718,3.023-27.164,3.023
	c-14.363,0-28.079-2.366-39.663-6.841l-0.452-0.175l-0.417,0.246c-3.267,1.929-6.789,3.517-10.47,4.722
	c-5.313,1.737-10.747,2.618-16.152,2.618c-17.477,0-31.67-8.981-36.157-22.881c-6.018-18.641,7.66-39.88,30.49-47.346
	C38.227,1.881,43.661,1,49.066,1c8.193,0,15.886,2.021,22.248,5.844l0.382,0.229l0.426-0.13C82.3,3.832,93.924,2.187,105.735,2.187
	c11.237,0,22.364,1.497,32.178,4.33l0.371,0.107l0.347-0.17c0.102-0.05,0.206-0.098,0.31-0.146l0.249-0.116
	c0.158-0.075,0.317-0.15,0.476-0.224c0.48-0.223,0.966-0.44,1.456-0.65l0.147-0.063l0.335-0.143c0.539-0.225,1.085-0.441,1.636-0.65
	l0.154-0.06l0.168-0.065c0.745-0.277,1.413-0.512,2.045-0.718c0.748-0.244,1.556-0.486,2.472-0.738
	c0.115-0.032,0.231-0.061,0.346-0.09l0.247-0.064c0.661-0.174,1.266-0.322,1.851-0.453c0.252-0.057,0.503-0.11,0.754-0.162
	c0.579-0.121,1.157-0.232,1.735-0.333l0.189-0.033c0.183-0.032,0.365-0.065,0.548-0.094c0.615-0.098,1.247-0.187,1.934-0.27
	l0.228-0.03c0.085-0.012,0.171-0.023,0.256-0.033c0.818-0.091,1.631-0.163,2.419-0.214c0.069-0.004,0.137-0.007,0.205-0.009
	l0.208-0.009c0.691-0.038,1.327-0.062,1.944-0.072c0.13-0.002,0.26-0.003,0.39-0.003l0.169,0l0.216,0l0.052,0
	c0.511,0,1.019,0.007,1.526,0.023c0.28,0.009,0.559,0.019,0.837,0.033c0.516,0.025,1.029,0.06,1.54,0.102l0.246,0.019
	c0.177,0.014,0.355,0.027,0.531,0.044c0.595,0.058,1.203,0.13,1.859,0.221l0.206,0.026c0.064,0.008,0.128,0.015,0.191,0.024
	c0.697,0.103,1.405,0.225,2.166,0.375c0.159,0.031,0.317,0.066,0.474,0.102l0.28,0.061c0.468,0.101,0.935,0.205,1.396,0.32
	c0.292,0.073,0.582,0.151,0.871,0.229c0.418,0.113,0.833,0.233,1.245,0.358c0.292,0.089,0.584,0.178,0.873,0.272
	c0.418,0.137,0.829,0.283,1.24,0.432l0.266,0.095c0.177,0.063,0.353,0.126,0.527,0.193c0.623,0.241,1.231,0.492,1.806,0.747
	c0.152,0.068,0.302,0.139,0.451,0.211l0.267,0.127c0.411,0.193,0.821,0.386,1.223,0.592c0.222,0.114,0.44,0.233,0.658,0.352
	l0.171,0.093c0.33,0.18,0.659,0.361,0.982,0.55c0.072,0.042,0.146,0.082,0.22,0.122c0.066,0.036,0.131,0.071,0.195,0.109l0.382,0.23
	l0.426-0.13C195,3.832,206.624,2.187,218.435,2.187c11.237,0,22.364,1.497,32.178,4.33l0.371,0.107l0.347-0.17
	c2.237-1.099,4.584-2.053,6.976-2.835C263.62,1.881,269.054,1,274.46,1"/>
<path fill="#FFFFFF" d="M274.46,1c17.477,0,31.669,8.981,36.157,22.881c6.018,18.641-7.66,39.881-30.49,47.347
	c-5.311,1.737-10.746,2.617-16.152,2.617c-6.262,0-12.399-1.223-17.75-3.538l-0.303-0.131l-0.322,0.075
	c-8.579,2.006-17.718,3.023-27.164,3.023c-14.363,0-28.079-2.366-39.663-6.841l-0.452-0.175l-0.417,0.246l-0.088,0.049
	c-0.049,0.026-0.098,0.053-0.145,0.081c-0.748,0.437-1.445,0.823-2.131,1.181c-0.1,0.052-0.202,0.102-0.304,0.152l-0.26,0.129
	c-0.62,0.314-1.194,0.593-1.755,0.851c-0.263,0.121-0.529,0.238-0.796,0.356l-0.06,0.026c-0.535,0.236-1.077,0.462-1.624,0.682
	l-0.208,0.084c-0.21,0.085-0.419,0.169-0.632,0.25c-0.789,0.301-1.532,0.567-2.27,0.811c-0.045,0.015-0.088,0.031-0.132,0.047
	l-0.065,0.024c-0.197,0.065-0.395,0.123-0.592,0.181l-0.365,0.109l-0.327,0.101c-0.264,0.082-0.529,0.165-0.794,0.24
	c-0.219,0.062-0.437,0.118-0.656,0.174l-0.342,0.088l-0.302,0.08c-0.267,0.071-0.533,0.142-0.8,0.206
	c-0.231,0.055-0.461,0.105-0.691,0.154l-0.311,0.067l-0.26,0.057c-0.279,0.062-0.557,0.124-0.836,0.179
	c-0.24,0.047-0.479,0.089-0.718,0.131l-0.278,0.049l-0.202,0.036c-0.299,0.053-0.597,0.107-0.895,0.153
	c-0.256,0.04-0.512,0.074-0.767,0.108l-0.218,0.029l-0.133,0.018c-0.322,0.044-0.644,0.088-0.965,0.124
	c-0.272,0.031-0.543,0.056-0.814,0.082l-0.159,0.015c-0.368,0.035-0.735,0.07-1.101,0.096c-0.303,0.022-0.604,0.038-0.952,0.057
	c-0.37,0.02-0.74,0.039-1.109,0.05c-0.31,0.01-0.619,0.015-0.928,0.019l-0.29,0.007c-0.119,0.003-0.238,0.007-0.356,0.007
	c-0.061,0-0.121-0.002-0.182-0.004c-0.072-0.002-0.143-0.005-0.215-0.005c-0.457-0.004-0.911-0.017-1.365-0.033l-0.224-0.008
	c-0.22-0.007-0.441-0.015-0.66-0.027c-0.477-0.026-0.949-0.064-1.422-0.104l-0.304-0.024c-0.162-0.012-0.323-0.024-0.484-0.041
	c-0.693-0.07-1.379-0.155-2.04-0.251c-0.136-0.02-0.27-0.043-0.405-0.066l-0.282-0.047c-0.5-0.081-1-0.164-1.493-0.26
	c-0.213-0.042-0.424-0.089-0.635-0.136l-0.313-0.069c-0.375-0.082-0.749-0.163-1.119-0.254c-0.301-0.074-0.597-0.154-0.895-0.235
	l-0.077-0.021c-0.351-0.095-0.7-0.192-1.047-0.295c-0.33-0.098-0.658-0.201-0.984-0.307c-0.33-0.107-0.658-0.219-0.984-0.334
	c-0.328-0.116-0.655-0.232-0.978-0.355c-0.312-0.119-0.618-0.245-0.935-0.375c-0.104-0.043-0.209-0.084-0.315-0.125
	c-0.132-0.052-0.265-0.103-0.394-0.159l-0.303-0.131l-0.322,0.075c-8.578,2.006-17.718,3.023-27.164,3.023
	c-14.363,0-28.079-2.366-39.663-6.841l-0.452-0.175l-0.417,0.246c-3.267,1.929-6.789,3.517-10.47,4.722
	c-5.313,1.737-10.747,2.618-16.152,2.618c-17.477,0-31.67-8.981-36.157-22.881c-6.018-18.641,7.66-39.88,30.49-47.346
	C38.227,1.881,43.661,1,49.066,1c8.193,0,15.886,2.021,22.248,5.844l0.382,0.229l0.426-0.13C82.3,3.832,93.924,2.187,105.735,2.187
	c11.237,0,22.364,1.497,32.178,4.33l0.371,0.107l0.347-0.17c0.102-0.05,0.206-0.098,0.31-0.146l0.249-0.116
	c0.158-0.075,0.317-0.15,0.476-0.224c0.48-0.223,0.966-0.44,1.456-0.65l0.147-0.063l0.335-0.143c0.539-0.225,1.085-0.441,1.636-0.65
	l0.154-0.06l0.168-0.065c0.745-0.277,1.413-0.512,2.045-0.718c0.748-0.244,1.556-0.486,2.472-0.738
	c0.115-0.032,0.231-0.061,0.346-0.09l0.247-0.064c0.661-0.174,1.266-0.322,1.851-0.453c0.252-0.057,0.503-0.11,0.754-0.162
	c0.579-0.121,1.157-0.232,1.735-0.333l0.189-0.033c0.183-0.032,0.365-0.065,0.548-0.094c0.615-0.098,1.247-0.187,1.934-0.27
	l0.228-0.03c0.085-0.012,0.171-0.023,0.256-0.033c0.818-0.091,1.631-0.163,2.419-0.214c0.069-0.004,0.137-0.007,0.205-0.009
	l0.208-0.009c0.691-0.038,1.327-0.062,1.944-0.072c0.13-0.002,0.26-0.003,0.39-0.003l0.169,0l0.216,0l0.052,0
	c0.511,0,1.019,0.007,1.526,0.023c0.28,0.009,0.559,0.019,0.837,0.033c0.516,0.025,1.029,0.06,1.54,0.102l0.246,0.019
	c0.177,0.014,0.355,0.027,0.531,0.044c0.595,0.058,1.203,0.13,1.859,0.221l0.206,0.026c0.064,0.008,0.128,0.015,0.191,0.024
	c0.697,0.103,1.405,0.225,2.166,0.375c0.159,0.031,0.317,0.066,0.474,0.102l0.28,0.061c0.468,0.101,0.935,0.205,1.396,0.32
	c0.292,0.073,0.582,0.151,0.871,0.229c0.418,0.113,0.833,0.233,1.245,0.358c0.292,0.089,0.584,0.178,0.873,0.272
	c0.418,0.137,0.829,0.283,1.24,0.432l0.266,0.095c0.177,0.063,0.353,0.126,0.527,0.193c0.623,0.241,1.231,0.492,1.806,0.747
	c0.152,0.068,0.302,0.139,0.451,0.211l0.267,0.127c0.411,0.193,0.821,0.386,1.223,0.592c0.222,0.114,0.44,0.233,0.658,0.352
	l0.171,0.093c0.33,0.18,0.659,0.361,0.982,0.55c0.072,0.042,0.146,0.082,0.22,0.122c0.066,0.036,0.131,0.071,0.195,0.109l0.382,0.23
	l0.426-0.13C195,3.832,206.624,2.187,218.435,2.187c11.237,0,22.364,1.497,32.178,4.33l0.371,0.107l0.347-0.17
	c2.237-1.099,4.584-2.053,6.976-2.835C263.62,1.881,269.054,1,274.46,1 M274.46,0c-5.359,0-10.927,0.857-16.464,2.668
	c-2.48,0.811-4.851,1.78-7.106,2.888c-9.656-2.787-20.711-4.369-32.455-4.369c-12.338,0-23.912,1.745-33.906,4.8
	c-0.139-0.083-0.286-0.157-0.426-0.239c-0.332-0.194-0.669-0.38-1.008-0.565c-0.283-0.154-0.564-0.309-0.851-0.457
	c-0.412-0.211-0.833-0.41-1.254-0.607c-0.246-0.115-0.488-0.236-0.737-0.346c-0.607-0.269-1.225-0.524-1.85-0.766
	c-0.268-0.103-0.541-0.197-0.812-0.295c-0.42-0.153-0.842-0.303-1.269-0.443c-0.296-0.097-0.594-0.188-0.894-0.279
	c-0.422-0.128-0.846-0.25-1.274-0.366c-0.296-0.08-0.592-0.16-0.891-0.235c-0.472-0.117-0.949-0.224-1.428-0.327
	c-0.257-0.055-0.512-0.116-0.771-0.166c-0.731-0.144-1.468-0.273-2.213-0.383c-0.134-0.02-0.271-0.032-0.406-0.051
	c-0.629-0.087-1.261-0.164-1.899-0.226c-0.263-0.026-0.529-0.044-0.794-0.065c-0.522-0.042-1.045-0.078-1.572-0.104
	c-0.284-0.014-0.569-0.025-0.854-0.034c-0.517-0.016-1.036-0.023-1.557-0.023c-0.017,0-0.034,0-0.052,0c-0.015,0-0.03,0-0.045,0
	c-0.113,0-0.227,0-0.34,0c-0.135,0-0.27,0.001-0.406,0.003c-0.658,0.011-1.319,0.037-1.983,0.074
	c-0.141,0.008-0.281,0.01-0.422,0.019c-0.819,0.052-1.641,0.126-2.466,0.218c-0.164,0.018-0.329,0.044-0.494,0.064
	c-0.656,0.08-1.312,0.17-1.971,0.276c-0.25,0.04-0.5,0.086-0.751,0.129c-0.589,0.103-1.178,0.216-1.768,0.339
	c-0.256,0.054-0.512,0.108-0.769,0.166c-0.628,0.141-1.256,0.297-1.885,0.462c-0.201,0.053-0.403,0.101-0.604,0.157
	c-0.839,0.231-1.679,0.477-2.518,0.751c-0.704,0.23-1.397,0.476-2.083,0.732c-0.11,0.041-0.218,0.085-0.328,0.127
	c-0.561,0.213-1.117,0.433-1.666,0.662c-0.165,0.069-0.328,0.14-0.491,0.21c-0.5,0.214-0.994,0.435-1.484,0.662
	c-0.162,0.076-0.324,0.151-0.485,0.228c-0.189,0.09-0.381,0.175-0.569,0.267c-9.656-2.787-20.711-4.369-32.455-4.369
	c-12.338,0-23.912,1.745-33.906,4.8C65.392,2.119,57.489,0.001,49.066,0c-5.359,0-10.927,0.857-16.463,2.668
	C9.213,10.317-4.725,32.077,1.472,51.272c4.73,14.652,19.826,23.574,37.109,23.574c5.359,0,10.927-0.857,16.463-2.668
	c3.824-1.251,7.396-2.879,10.668-4.811c11.252,4.347,25.077,6.908,40.023,6.908c9.741,0,19.005-1.088,27.392-3.049
	c0.238,0.103,0.486,0.192,0.727,0.291c0.318,0.13,0.635,0.261,0.958,0.384c0.331,0.126,0.666,0.246,1.002,0.364
	c0.334,0.118,0.669,0.232,1.007,0.342c0.334,0.108,0.669,0.214,1.007,0.314c0.354,0.106,0.712,0.205,1.071,0.302
	c0.33,0.089,0.66,0.179,0.994,0.261c0.389,0.096,0.783,0.181,1.177,0.267c0.312,0.068,0.622,0.141,0.938,0.202
	c0.504,0.099,1.015,0.184,1.526,0.266c0.234,0.038,0.466,0.082,0.702,0.116c0.689,0.101,1.384,0.186,2.084,0.257
	c0.267,0.027,0.537,0.044,0.805,0.066c0.482,0.041,0.965,0.08,1.451,0.106c0.299,0.016,0.601,0.025,0.902,0.035
	c0.463,0.017,0.926,0.03,1.392,0.034c0.136,0.001,0.269,0.01,0.405,0.01c0.219,0,0.44-0.01,0.659-0.013
	c0.315-0.004,0.63-0.009,0.947-0.019c0.376-0.012,0.753-0.031,1.131-0.051c0.323-0.017,0.646-0.035,0.971-0.058
	c0.373-0.027,0.748-0.063,1.123-0.098c0.33-0.031,0.66-0.061,0.992-0.099c0.372-0.042,0.746-0.094,1.119-0.145
	c0.335-0.045,0.669-0.088,1.005-0.141c0.372-0.058,0.745-0.126,1.117-0.192c0.338-0.06,0.676-0.116,1.015-0.183
	c0.372-0.073,0.744-0.159,1.116-0.241c0.34-0.075,0.681-0.144,1.021-0.226c0.374-0.09,0.748-0.193,1.123-0.291
	c0.339-0.089,0.678-0.171,1.016-0.267c0.381-0.108,0.761-0.23,1.142-0.347c0.325-0.1,0.649-0.19,0.974-0.296
	c0.068-0.022,0.133-0.049,0.201-0.072c0.782-0.259,1.552-0.536,2.312-0.826c0.288-0.11,0.571-0.226,0.856-0.34
	c0.558-0.224,1.109-0.455,1.655-0.695c0.292-0.128,0.583-0.256,0.871-0.389c0.605-0.279,1.2-0.569,1.788-0.868
	c0.191-0.097,0.386-0.187,0.575-0.286c0.738-0.386,1.461-0.789,2.172-1.204c0.078-0.046,0.161-0.086,0.238-0.132
	c11.252,4.347,25.077,6.908,40.023,6.908c9.741,0,19.005-1.088,27.392-3.049c5.449,2.357,11.642,3.62,18.147,3.62
	c5.358,0,10.928-0.857,16.463-2.667c23.39-7.649,37.328-29.41,31.131-48.605C306.838,8.922,291.742,0,274.46,0L274.46,0z"/>
</svg>
