<?xml version="1.0" encoding="utf-8"?>
<!-- Generator: Adobe Illustrator 17.0.0, SVG Export Plug-In . SVG Version: 6.00 Build 0)  -->
<!DOCTYPE svg PUBLIC "-//W3C//DTD SVG 1.1//EN" "http://www.w3.org/Graphics/SVG/1.1/DTD/svg11.dtd">
<svg version="1.1" id="Layer_1" xmlns="http://www.w3.org/2000/svg" xmlns:xlink="http://www.w3.org/1999/xlink" x="0px" y="0px"
	 width="200.34px" height="74.846px" viewBox="0 0 200.34 74.846" enable-background="new 0 0 200.34 74.846" xml:space="preserve" preserveAspectRatio="none">
<g id="Union_1">
	<path fill="#F9BFFF" d="M133.127,71.226c-8.985,2.057-18.175,3.08-27.392,3.049c-14.946,0-28.77-2.561-40.023-6.908
		c-3.371,1.986-6.948,3.599-10.668,4.811c-23.39,7.649-47.375-1.711-53.572-20.905S9.213,10.317,32.6,2.668
		c14.239-4.656,28.7-3.01,39.229,3.319c11.005-3.254,22.43-4.871,33.906-4.8c10.969-0.059,21.892,1.411,32.455,4.369
		c2.299-1.129,4.675-2.094,7.11-2.888c23.39-7.649,47.375,1.71,53.572,20.906s-7.741,40.956-31.131,48.6
		c-5.313,1.752-10.869,2.652-16.463,2.668C145.045,74.885,138.868,73.655,133.127,71.226z"/>
	<path d="M151.274,73.846c5.406,0,10.84-0.881,16.152-2.618c5.611-1.835,10.762-4.516,15.309-7.968
		c4.384-3.328,8.024-7.229,10.82-11.594c2.785-4.349,4.59-8.937,5.365-13.639c0.799-4.848,0.461-9.608-1.004-14.147
		c-2.216-6.865-6.858-12.653-13.423-16.74c-3.179-1.979-6.736-3.511-10.571-4.553C170.046,1.534,165.954,1,161.76,1
		c-5.405,0-10.84,0.881-16.153,2.618c-2.396,0.784-4.743,1.737-6.976,2.835l-0.347,0.171l-0.371-0.107
		c-4.836-1.395-9.985-2.472-15.303-3.199c-5.483-0.75-11.161-1.13-16.875-1.13c-6.001,0-11.953,0.419-17.69,1.244
		c-5.56,0.8-10.917,1.982-15.924,3.512l-0.426,0.13l-0.382-0.229c-3.137-1.885-6.629-3.343-10.377-4.334
		C57.147,1.508,53.153,1,49.066,1c-5.406,0-10.84,0.881-16.152,2.618c-5.611,1.835-10.762,4.516-15.31,7.968
		C13.22,14.915,9.58,18.815,6.784,23.18c-2.785,4.349-4.59,8.937-5.365,13.639c-0.799,4.848-0.461,9.608,1.004,14.147
		c2.216,6.864,6.858,12.653,13.423,16.74c3.179,1.979,6.736,3.511,10.571,4.553c3.877,1.054,7.969,1.588,12.163,1.588
		c5.406,0,10.84-0.881,16.152-2.618c3.681-1.204,7.203-2.792,10.471-4.722l0.417-0.246l0.452,0.175
		c5.642,2.179,11.846,3.872,18.439,5.032c6.825,1.2,13.966,1.809,21.223,1.809c9.447,0,18.586-1.017,27.164-3.023l0.322-0.075
		l0.303,0.131c2.662,1.152,5.515,2.037,8.477,2.631C145,73.541,148.12,73.846,151.274,73.846L151.274,73.846 M151.274,74.846
		c-6.505,0-12.698-1.263-18.147-3.62c-8.387,1.961-17.651,3.049-27.392,3.049c-14.946,0-28.771-2.561-40.023-6.908
		c-3.272,1.932-6.844,3.56-10.668,4.811c-23.39,7.649-47.375-1.711-53.572-20.906C-4.725,32.077,9.213,10.317,32.603,2.668
		c14.236-4.655,28.694-3.01,39.226,3.319c9.994-3.055,21.568-4.8,33.906-4.8c11.744,0,22.799,1.582,32.455,4.369
		c2.255-1.108,4.626-2.077,7.106-2.888c23.39-7.649,47.375,1.71,53.572,20.906c6.197,19.195-7.741,40.956-31.131,48.605
		C162.202,73.989,156.632,74.846,151.274,74.846z"/>
</g>
</svg>
