<?xml version="1.0" encoding="utf-8"?>
<!-- Generator: Adobe Illustrator 17.0.0, SVG Export Plug-In . SVG Version: 6.00 Build 0)  -->
<!DOCTYPE svg PUBLIC "-//W3C//DTD SVG 1.1//EN" "http://www.w3.org/Graphics/SVG/1.1/DTD/svg11.dtd">
<svg version="1.1" id="Layer_1" xmlns="http://www.w3.org/2000/svg" xmlns:xlink="http://www.w3.org/1999/xlink" x="0px" y="0px"
	 width="200px" height="75px" viewBox="0 0 200 75" enable-background="new 0 0 200 75" xml:space="preserve" preserveAspectRatio="none">
<path fill="#FFFFFF" d="M49.882,0c-5.569,0-11.368,0.914-17.131,2.845C9.186,10.742-4.799,32.637,1.516,51.75
	c4.77,14.436,19.757,23.156,36.959,23.156c5.573,0,11.378-0.915,17.144-2.847c4.162-1.395,8.018-3.233,11.523-5.409
	c10.692,4.386,23.867,6.982,38.129,6.982c8.921,0,17.42-1.013,25.151-2.846C136.18,73.526,142.878,75,149.953,75
	c5.65,0,11.539-0.939,17.388-2.923c23.543-7.985,37.477-29.863,31.122-48.866c-4.775-14.28-19.651-22.873-36.739-22.873
	c-5.652,0-11.544,0.939-17.396,2.924c-2.307,0.782-4.517,1.702-6.629,2.735c-9.535-3.107-20.606-4.895-32.428-4.895
	c-11.847,0-22.939,1.795-32.488,4.914C66.332,2.128,58.376,0,49.882,0L49.882,0z"/>
<path d="M49.882,1c8.271,0,16.012,2.031,22.385,5.874c0.158,0.095,0.336,0.144,0.516,0.144c0.104,0,0.209-0.016,0.31-0.049
	c9.743-3.183,20.869-4.865,32.177-4.865c11.283,0,22.389,1.676,32.118,4.846c0.101,0.033,0.206,0.049,0.31,0.049
	c0.151,0,0.301-0.034,0.439-0.102c2.115-1.035,4.306-1.939,6.511-2.687c5.617-1.905,11.362-2.871,17.074-2.871
	c17.234,0,31.283,8.71,35.791,22.19c6.171,18.451-7.509,39.805-30.495,47.602c-5.614,1.904-11.356,2.87-17.067,2.87
	c-6.837,0-13.442-1.424-19.101-4.117c-0.135-0.064-0.282-0.097-0.43-0.097c-0.077,0-0.155,0.009-0.231,0.027
	c-7.892,1.87-16.276,2.819-24.92,2.819c-13.682,0-26.736-2.388-37.749-6.907c-0.122-0.05-0.251-0.075-0.38-0.075
	c-0.184,0-0.367,0.051-0.527,0.15c-3.531,2.191-7.337,3.978-11.313,5.31c-5.535,1.855-11.197,2.795-16.827,2.795
	c-17.365,0-31.5-8.82-36.01-22.47c-6.13-18.56,7.599-39.933,30.607-47.643C38.601,1.939,44.258,1,49.882,1L49.882,1 M49.882,0
	c-5.569,0-11.368,0.914-17.131,2.845C9.186,10.742-4.799,32.637,1.516,51.75c4.77,14.436,19.757,23.156,36.959,23.156
	c5.573,0,11.378-0.915,17.144-2.847c4.162-1.395,8.018-3.233,11.523-5.409c10.692,4.386,23.867,6.982,38.129,6.982
	c8.921,0,17.42-1.013,25.151-2.846C136.18,73.526,142.878,75,149.953,75c5.65,0,11.539-0.939,17.388-2.923
	c23.543-7.985,37.477-29.863,31.122-48.866c-4.775-14.28-19.651-22.873-36.739-22.873c-5.652,0-11.544,0.939-17.396,2.924
	c-2.307,0.782-4.517,1.702-6.629,2.735c-9.535-3.107-20.606-4.895-32.428-4.895c-11.847,0-22.939,1.795-32.488,4.914
	C66.332,2.128,58.376,0,49.882,0L49.882,0z"/>
</svg>
