<?xml version="1.0" encoding="utf-8"?>
<!-- Generator: Adobe Illustrator 17.0.0, SVG Export Plug-In . SVG Version: 6.00 Build 0)  -->
<!DOCTYPE svg PUBLIC "-//W3C//DTD SVG 1.1//EN" "http://www.w3.org/Graphics/SVG/1.1/DTD/svg11.dtd">
<svg version="1.1" id="Layer_1" xmlns="http://www.w3.org/2000/svg" xmlns:xlink="http://www.w3.org/1999/xlink" x="0px" y="0px"
	 width="200px" height="75px" viewBox="30.999 47.999 200 75" enable-background="new 30.999 47.999 200 75" xml:space="preserve" preserveAspectRatio="none">
<g>
	<path d="M229.463,71.212c-6.355-19.003-30.592-27.934-54.135-19.949c-2.307,0.782-4.517,1.702-6.629,2.735
		c-9.535-3.107-20.606-4.895-32.428-4.895c-11.847,0-22.939,1.795-32.488,4.914c-10.682-6.44-25.479-8.049-40.032-3.173
		c-23.565,7.898-37.55,29.793-31.235,48.906s30.538,28.206,54.104,20.309c4.162-1.395,8.018-3.233,11.523-5.409
		c10.692,4.386,23.867,6.982,38.129,6.982c8.921,0,17.42-1.013,25.151-2.846c10.354,4.927,23.744,5.76,36.919,1.291
		C221.885,112.092,235.818,90.214,229.463,71.212z"/>
</g>
</svg>
