<svg width="236" height="87" viewBox="0 0 236 87" fill="none" xmlns="http://www.w3.org/2000/svg">
<path d="M90.845 18.6421C89.3938 20.5128 87.292 22.3582 85.7156 24.2036C81.387 28.9813 77.4336 34.1383 72.4794 38.2841C70.3776 40.0284 67.9005 41.5957 65.3233 42.4046C59.2681 44.0983 60.7944 39.8261 63.0463 36.3376C67.2249 29.6892 72.3042 22.7374 79.3853 18.9202C82.0625 17.5804 85.1151 17.0495 88.1177 16.8473C89.619 16.822 92.3463 16.6198 90.8951 18.6169L90.845 18.6421ZM40.6773 34.8209C40.4521 37.5763 40.9776 40.9637 39.5263 43.618C36.4737 50.0642 26.9156 51.6063 26.5153 42.7838C26.6904 29.5375 45.6816 23.4957 56.1655 20.7403C57.1413 20.5886 65.6235 17.9596 64.4225 20.1336C63.3466 21.802 61.495 23.0407 59.6685 25.0125C57.8419 26.8832 56.1655 28.9055 54.6642 31.029C53.288 32.8743 51.7117 35.6298 50.6108 37.0454C49.4598 38.5875 48.7091 38.4105 47.9335 36.6915C47.358 35.4528 46.6324 33.5316 45.4314 32.4699C43.1044 30.4223 40.9025 31.7621 40.6773 34.7703V34.8209ZM123.373 70.4646C121.421 71.6021 120.045 70.6163 119.795 68.417C119.544 65.9649 120.22 63.3106 120.871 60.909C122.272 56.106 124.198 51.3535 127.151 47.3088C129.128 44.4775 133.882 40.7615 134.182 46.7779C134.107 53.4011 129.078 66.9255 123.423 70.414H123.373V70.4646ZM169.487 45.1601C169.337 46.2218 168.936 47.9408 167.735 47.7133C166.309 47.0307 165.909 44.7556 165.884 43.1883C165.859 41.5199 166.81 39.0425 168.411 40.4328C169.387 41.4187 169.687 43.618 169.512 45.0842V45.1601H169.487ZM153.023 66.3694C153.348 65.1307 154.299 64.1953 155.375 62.8303C156.051 61.996 156.676 61.0102 157.126 60.0243C157.802 58.735 157.977 57.2435 158.953 56.3335C159.478 55.9796 160.004 56.4346 160.354 56.8391C161.931 58.7097 163.157 62.8555 161.48 65.4087C160.454 67.1783 158.478 68.417 156.476 68.5686C154.9 68.7203 152.673 68.2147 153.023 66.3946V66.3694ZM209.171 41.6462C208.47 43.3905 206.543 45.1853 204.717 45.8679C201.614 47.1824 200.063 45.6909 203.141 42.5057C204.242 41.3935 205.618 40.2812 207.044 39.6492C209.171 38.7139 209.921 39.9273 209.196 41.5957V41.6462H209.171ZM234.943 40.8879C234.292 39.2447 232.641 39.447 231.265 40.3064C229.463 41.444 228.137 43.4411 226.886 45.1853C224.734 48.2947 222.432 51.4293 220.005 54.2859C218.629 55.6762 213.95 62.0719 213.249 57.1424C212.048 47.4858 220.03 47.6374 222.032 40.4834C222.982 37.0707 221.631 33.0513 218.454 31.3829C215.651 29.6386 211.623 30.7509 208.921 30.9784C205.743 31.1554 209.771 25.2147 210.572 23.1924C211.573 21.1953 212.574 19.1983 213.574 17.2012C215.101 13.3082 222.882 2.51397 217.127 0.567471C214.125 -0.494258 207.544 0.693867 205.718 3.39875C200.313 13.738 190.004 35.8573 183.149 49.8367C181.447 53.3505 180.646 55.2718 178.169 57.5469C175.742 59.822 173.315 56.6116 173.941 53.9067C174.241 52.5669 175.092 51.7327 176.393 50.7468C180.071 48.3958 182.448 44.6545 180.671 40.0789C179.195 36.2365 175.117 34.29 171.263 34.0878C164.758 33.6327 158.152 36.8685 155.525 42.8596C154.499 44.8314 153.023 48.1177 150.846 48.1936C144.941 47.5869 145.316 35.0989 130.254 37.6016C121.171 39.447 113.339 46.0448 109.186 54.3617C107.884 56.8391 106.683 59.2912 105.107 61.6674C104.532 62.9061 96.4498 72.8914 96.9752 68.1895C98.6016 62.4763 101.954 57.2941 104.507 51.9096C105.683 49.4575 107.334 46.4746 106.658 43.7191C105.933 41.5451 103.055 41.2418 100.929 41.5451C95.9744 42.1771 92.8467 46.0196 90.82 50.3423C88.6181 54.5639 86.7665 58.735 84.1393 62.6533C82.7381 64.8273 75.582 73.7762 73.23 72.31C72.1041 70.7679 73.7555 66.7991 74.0557 64.9284C74.7063 62.1983 75.1066 59.367 74.8814 56.6116C74.7313 54.4881 73.9807 52.213 74.0057 50.1401C74.0057 47.0054 76.9832 45.6656 79.4353 44.2753C80.8865 43.4664 82.3127 42.5816 83.6639 41.621C91.5956 36.2365 96.7 27.8185 102.48 20.3106C103.856 18.7685 106.734 15.3306 108.485 17.454C109.111 18.4652 109.236 20.0325 108.835 21.5745C108.285 23.6474 106.859 25.0883 105.257 26.4029C103.706 27.6668 101.979 29.0572 101.304 31.0542C100.003 34.3911 102.08 38.4863 105.633 39.0678C108.36 39.5733 111.362 38.0819 112.614 35.554C114.065 32.8743 112.764 29.4617 114.565 26.9843C115.991 25.1642 118.068 24.3047 119.544 22.2571C121.896 19.1224 121.546 14.3699 118.819 11.5892C113.84 6.71033 105.758 8.3282 100.028 10.8308C97.9761 11.7409 95.7242 13.106 93.7725 12.2718C92.5464 11.842 91.3454 10.8308 89.644 10.1736C85.8658 8.88434 81.6872 10.0977 77.8089 10.4264C71.3034 11.1848 64.7228 11.9179 58.2423 13.2071C44.7057 16.1395 28.3168 20.0072 18.7587 30.8773C9.07541 42.1771 16.2315 59.1142 31.6696 56.1818C37.3745 55.5246 44.4805 48.2441 39.3512 58.5075C35.4729 66.2935 30.869 74.8885 22.4868 78.2253C19.6594 79.2618 14.8303 80.0454 13.6793 76.481C12.9787 73.1189 14.3299 68.4928 10.4516 66.066C7.74928 64.2459 3.87098 65.1307 1.94434 67.7344C-1.43353 72.133 0.342979 79.0595 4.57158 82.3458C7.74928 84.9749 12.0279 86.0619 16.1314 86.1377C31.5195 86.5675 44.7057 76.2788 51.6366 62.805C53.9636 59.2406 56.1905 50.5445 61.1197 50.6709C64.8479 51.7327 62.9212 56.9149 62.0455 59.5692C60.7944 63.083 59.4433 66.5716 59.1931 70.2371C58.5926 76.0007 62.2206 81.5622 68.2007 81.7391C71.1532 81.9161 74.2058 80.8291 76.8331 79.2365C78.5345 78.2759 80.3611 77.0625 82.2877 76.9361C84.7898 76.7591 87.1419 78.3012 89.5939 78.8573C92.6465 79.6157 96.1745 78.6045 98.9519 76.9866C100.879 75.9249 102.605 74.2818 104.507 73.22C109.911 70.2371 112.088 77.7956 120.57 77.3658C136.534 76.8602 140.237 62.5522 144.316 67.1277C146.342 69.3776 148.519 72.0825 151.572 73.0431C155.725 74.6104 160.729 74.307 165.158 73.22C167.41 72.6386 169.712 71.7791 171.964 71.3494C177.919 70.0601 184.65 72.31 188.853 66.4452C191.431 63.1336 193.032 57.3447 196.835 55.5246C200.088 54.4123 199.337 60.5298 199.888 62.628C200.889 69.327 207.87 70.7174 213.224 68.2147C221.356 64.4481 226.711 56.7632 231.79 49.4828C233.416 47.056 235.868 43.7444 235.093 40.812L234.943 40.8879Z" fill="#808080"/>
</svg>
