<svg xmlns="http://www.w3.org/2000/svg" width="1920" height="684.248" viewBox="0 0 1920 684.248">
  <path id="Path_105" data-name="Path 105" d="M1919.577,570.628c-1.586-22.2-15.859-43.136-39.013-46.308h-.951a28.435,28.435,0,0,0-7.612-.634v-.634h-25.057v-5.392c0-13.322.952-26.96-3.172-39.647-6.026-17.128-18.4-24.74-32.669-28.229,0-4.758-.317-9.2-.317-13.956,0-17.762.317-35.524-12.687-49.48-14.907-15.859-38.379-17.445-60.9-16.81,13.322-3.172,24.74-9.833,32.352-25.057,6.661-13.322,4.758-28.863,4.758-43.454V293.1c14.59-3.489,26.96-11.1,32.986-28.546,4.441-12.687,3.172-26.326,3.172-39.647V217.29c11.736-2.855,22.52-8.564,29.815-21.251,11.418-19.665,6.661-48.846,6.661-70.731,0-25.374-7.93-49.48-34.89-57.409-10.15-3.172-22.52-1.586-32.987-1.586h-5.392c.317-14.59-.634-29.5-6.978-40.6C1754.01,2.877,1732.442.34,1708.653.022c-38.379-.634-69.462,12.053-86.59,44.405A42.763,42.763,0,0,0,1605.253,66a28.6,28.6,0,0,0-1.9,6.978c-13.639-6.978-31.084-7.929-48.211-7.612.317-14.273-.952-28.546-6.978-39.647C1535.473,2.877,1513.905.34,1490.117.022c-38.7-.634-69.779,12.053-86.59,45.039a46.329,46.329,0,0,0-15.859,21.568H1264.285c.317-14.59-.634-29.5-6.978-40.6C1244.62,3.194,1223.052.657,1199.264.34c-38.379-.634-69.462,12.053-86.59,44.405a46.434,46.434,0,0,0-15.225,17.762,52.613,52.613,0,0,0-4.758,17.445c-23.154,5.709-41.55,18.714-52.969,41.233a45.9,45.9,0,0,0-16.811,20.934c-4.44-.317-8.881,0-13.639,0,.317-14.907-.952-29.815-7.612-41.233-10.784-18.4-28.863-22.52-47.577-23.471-18.079-12.687-42.5-10.15-65.656-10.15h-60.9c.317-14.59-.634-29.5-6.978-40.6C807.865,3.829,786.3,1.291,762.508.974c-38.379-.634-69.462,12.053-86.59,44.405a46.435,46.435,0,0,0-15.225,17.762,52.614,52.614,0,0,0-4.758,17.445,90.436,90.436,0,0,0-19.031,6.978c-13.956-19.665-39.647-21.885-64.07-21.251.317-14.273-.951-28.546-6.978-39.647C553.17,3.829,531.6,1.291,507.813.974c-38.7-.634-69.779,12.053-86.59,45.039a46.328,46.328,0,0,0-15.859,21.568c-3.172,0-6.344.317-9.515.317h-5.075c.317-14.59-.634-29.5-6.978-40.6C371.109,4.463,349.541,1.926,325.752,1.608c-38.379-.634-69.462,12.053-86.59,44.405a42.762,42.762,0,0,0-16.811,21.568,28.6,28.6,0,0,0-1.9,6.978c-13.639-6.978-31.084-7.929-48.211-7.612.317-14.273-.952-28.546-6.978-39.647C152.573,4.463,131,1.926,107.216,1.608,68.52.974,37.437,13.661,20.626,46.648,5.719,57.749.644,74.877.644,96.128c0,18.4-2.22,37.744,1.586,55.824C-.308,164.321.644,176.691.644,190.013c0,13-.634,25.692,1.9,38.061-2.537,12.37-1.9,25.057-1.9,38.061s-.634,25.692,1.9,38.061c-2.537,12.37-1.9,25.057-1.9,38.061s-.634,25.692,1.9,38.061c-2.537,12.37-1.9,25.057-1.9,38.061s-.634,25.691,1.9,38.061C.009,468.813.644,481.5.644,494.5S.009,520.2,2.23,532.249C-1.576,550.328.644,569.676.644,588.072c0,21.251,5.075,38.379,19.982,49.48,9.2,18.4,23.788,32.987,44.405,40.282s52.017,8.564,74.537.952h46.625c19.665,0,38.379-3.172,50.431-20.3,10.784-15.859,8.881-34.89,8.881-53.286,0-11.418.634-22.52-.634-33.621,11.418,16.493,27.595,26.643,46.943,31.4.634,6.026,1.9,12.053,4.758,17.445A44.209,44.209,0,0,0,311.8,638.187c9.2,18.079,23.788,32.352,44.088,39.647,20.617,7.3,52.017,8.564,74.537.952,18.4,0,36.476.317,54.872,2.537,17.445,1.9,37.427,3.172,54.238-2.537h47.894c19.665,0,38.379-3.172,50.432-20.3,10.784-15.859,8.881-34.89,8.881-53.286v-5.075a94.94,94.94,0,0,0,10.15,3.172c.634,6.026,1.9,12.053,4.758,17.445A44.209,44.209,0,0,0,676.87,638.5c9.2,18.079,23.788,32.352,44.088,39.647,20.617,7.3,52.017,8.564,74.537.951h65.656c23.788,0,50.749,3.489,73.9-1.269s37.427-23.154,39.013-46.308c.634-7.612.952-15.542.952-23.471,13.321.634,26.96-.951,38.379-5.075,22.2.634,46.308,3.172,67.559-2.22a86.225,86.225,0,0,0,12.053,3.489c.634,5.709,1.9,11.418,4.758,16.493a44.209,44.209,0,0,0,15.225,17.762c9.2,18.079,23.788,32.352,44.088,39.647,20.617,7.3,52.017,8.564,74.537.951h151.929c16.493,0,32.987-2.22,45.039-11.1a74.68,74.68,0,0,0,19.348,10.15c20.617,7.3,52.017,8.564,74.537.951h46.625c19.665,0,38.379-3.172,50.431-20.3,10.784-15.859,8.881-34.89,8.881-53.286,0-11.418.634-22.52-.634-33.621,11.418,16.493,27.595,26.643,46.943,31.4.634,6.026,1.9,12.053,4.758,17.445A44.209,44.209,0,0,0,1694.7,638.5c9.2,18.079,23.788,32.352,44.088,39.647s52.017,8.564,74.22.951c38.7.952,95.471,8.881,105.3-39.33,2.22-10.15,1.269-21.251,1.269-31.718,0-13.956.952-25.691,0-37.427" transform="translate(0 0)" fill="#fff"/>
</svg>
