<?xml version="1.0" encoding="UTF-8"?>
<svg id="Layer_1" data-name="Layer 1" xmlns="http://www.w3.org/2000/svg" version="1.1" viewBox="0 -3 192.5 9.3" preserveAspectRatio="none">
  <path d="M2,3c.8,0,1.6,0,2.4,0s1.6-.1,2.4,0,1.6.1,2.4.1,1.6.1,2.4.1,1.6-.1,2.4-.1,1.6,0,2.4,0,1.6.2,2.4.2,1.6-.3,2.4-.3,1.6.2,2.4.2,1.6,0,2.4,0,1.6-.1,2.4-.1,1.6.3,2.3.3,1.6,0,2.4,0,1.6-.1,2.4,0,1.6.2,2.3.2,1.6,0,2.4,0,1.6-.2,2.4-.2,1.6,0,2.4,0,1.6.4,2.3.4,1.6-.1,2.4,0,1.6.1,2.3.1,1.6-.1,2.4,0,1.6,0,2.4,0,1.6,0,2.4,0,1.6,0,2.3,0,1.6,0,2.3.1,1.6.2,2.3.3,1.6,0,2.3,0,1.6,0,2.3,0,1.6,0,2.3,0,1.6-.2,2.3-.2,1.6,0,2.3,0,1.6,0,2.3,0,1.6.3,2.3.3,1.6-.3,2.3-.3,1.6,0,2.3,0,1.6.1,2.3.1,1.6,0,2.3,0,1.6,0,2.4,0,1.6,0,2.4,0,1.6,0,2.4,0,1.6,0,2.3-.1,1.6-.2,2.3-.2,1.6,0,2.4,0,1.6,0,2.3,0,1.6,0,2.4,0,1.6,0,2.4,0c.8,0,1.6,0,2.3,0s1.6-.1,2.3-.2,1.6-.1,2.3-.2,1.6,0,2.3,0,1.5-.3,2.3-.4,1.6,0,2.3-.2,1.6-.1,2.3-.2,1.6,0,2.3-.1,1.6-.1,2.3-.2,1.6,0,2.3-.2,1.5-.3,2.3-.4,1.6,0,2.3,0,1.5-.4,2.3-.4,1.6.2,2.4.1,1.5-.2,2.3-.2,1.5-.3,2.3-.4,1.6,0,2.3,0,1.6,0,2.3,0,1.6,0,2.3,0,1.5-.2,2.3-.2,1.6,0,2.3,0,1.6.1,2.3.1,1.5,0,2.3,0,1.6,0,2.3,0,1.6,0,2.3,0,1.5.3,2.3.3,1.6,0,2.3,0,1.5.2,2.3.3,1.5.2,2.3.2,1.6,0,2.4,0,1.5.2,2.3.2,1.6,0,2.3.2,1.5.4,2.3.5" style="fill: none; stroke: blue; stroke-linecap: round; stroke-miterlimit: 10; stroke-width: 2px;"/>
</svg>