<svg width="233" height="230" viewBox="0 0 233 230" fill="none" xmlns="http://www.w3.org/2000/svg">
<mask id="path-1-outside-1_2_53" maskUnits="userSpaceOnUse" x="-0.341736" y="0.198242" width="233" height="229" fill="black">
<rect fill="white" x="-0.341736" y="0.198242" width="233" height="229"/>
<path d="M143.828 223.066C112.96 152.226 97.3132 149.827 6.65826 202.019C92.9891 140.353 94.9887 126.455 24.2294 80.312C102.787 112.282 113.135 103.834 114.734 6.19824C119.333 91.8603 121.808 95.7097 136.405 40.0681C129.431 102.584 133.83 105.008 174.746 61.2649C143.678 107.808 148.277 107.833 214.937 61.5649C143.878 116.557 145.153 127.28 226.26 155.426C150.376 138.903 145.428 140.078 182.894 165.774C137.654 144.277 134.83 146.977 158.1 189.496C131.306 153.601 129.656 157.425 143.853 223.066"/>
</mask>
<path d="M143.828 223.066C112.96 152.226 97.3132 149.827 6.65826 202.019C92.9891 140.353 94.9887 126.455 24.2294 80.312C102.787 112.282 113.135 103.834 114.734 6.19824C119.333 91.8603 121.808 95.7097 136.405 40.0681C129.431 102.584 133.83 105.008 174.746 61.2649C143.678 107.808 148.277 107.833 214.937 61.5649C143.878 116.557 145.153 127.28 226.26 155.426C150.376 138.903 145.428 140.078 182.894 165.774C137.654 144.277 134.83 146.977 158.1 189.496C131.306 153.601 129.656 157.425 143.853 223.066" fill="#8FFF45"/>
<path d="M138.327 225.462C139.651 228.5 143.187 229.89 146.225 228.566C149.263 227.242 150.652 223.707 149.328 220.669L138.327 225.462ZM6.65826 202.019L3.17081 197.136C0.567187 198.996 -0.119032 202.572 1.61113 205.263C3.34128 207.955 6.87902 208.815 9.65192 207.218L6.65826 202.019ZM24.2294 80.312L26.491 74.7546C23.6274 73.5892 20.3471 74.7906 18.9134 77.5298C17.4798 80.269 18.3623 83.6491 20.952 85.3379L24.2294 80.312ZM114.734 6.19824L120.726 5.87658C120.552 2.64926 117.854 0.139085 114.623 0.199283C111.391 0.259481 108.788 2.86841 108.735 6.09995L114.734 6.19824ZM136.405 40.0681L142.368 40.7333C142.716 37.6081 140.593 34.744 137.501 34.1692C134.41 33.5944 131.399 35.504 130.601 38.5456L136.405 40.0681ZM174.746 61.2649L179.736 64.5961C181.471 61.9979 180.921 58.5037 178.473 56.5631C176.025 54.6225 172.498 54.8849 170.364 57.1663L174.746 61.2649ZM214.937 61.5649L218.609 66.3099C221.182 64.319 221.699 60.6405 219.776 58.017C217.852 55.3936 214.188 54.7809 211.516 56.6358L214.937 61.5649ZM226.26 155.426L224.983 161.288C228.085 161.964 231.176 160.106 232.035 157.05C232.895 153.995 231.226 150.798 228.227 149.757L226.26 155.426ZM182.894 165.774L180.319 171.193C183.147 172.537 186.532 171.481 188.094 168.768C189.656 166.055 188.87 162.597 186.288 160.826L182.894 165.774ZM158.1 189.496L153.292 193.085C155.176 195.609 158.692 196.246 161.343 194.544C163.993 192.841 164.875 189.379 163.363 186.615L158.1 189.496ZM137.988 224.334C138.689 227.573 141.882 229.63 145.121 228.93C148.36 228.229 150.418 225.036 149.717 221.797L137.988 224.334ZM149.328 220.669C141.6 202.933 134.588 188.898 126.873 178.889C119.019 168.701 110.088 162.241 98.573 160.475C87.4034 158.761 74.7544 161.63 59.725 167.773C44.6207 173.947 26.3407 183.764 3.66461 196.819L9.65192 207.218C32.3032 194.178 49.9747 184.722 64.2654 178.881C78.6311 173.009 88.8208 171.119 96.7532 172.336C104.34 173.5 110.774 177.661 117.369 186.215C124.102 194.949 130.622 207.778 138.327 225.462L149.328 220.669ZM10.1457 206.901C31.7305 191.483 48.3544 178.837 59.9147 167.819C71.32 156.949 78.7632 146.788 80.2911 136.201C81.8946 125.091 76.8028 115.332 67.8018 105.966C58.8622 96.6639 45.1905 86.818 27.5068 75.2862L20.952 85.3379C38.648 96.8776 51.261 106.073 59.1497 114.281C66.9771 122.426 69.257 128.647 68.4142 134.487C67.4957 140.851 62.6745 148.611 51.6356 159.132C40.7516 169.506 24.7515 181.721 3.17081 197.136L10.1457 206.901ZM21.9677 85.8695C41.6031 93.8604 57.4972 99.5522 70.2194 101.853C82.9353 104.153 93.8242 103.309 102.142 96.4999C110.198 89.905 114.4 78.827 116.878 64.4856C119.387 49.9581 120.334 30.707 120.734 6.29653L108.735 6.09995C108.335 30.5071 107.388 48.9253 105.053 62.4428C102.685 76.1464 99.0911 83.4891 94.5404 87.2145C90.2514 90.7257 83.7238 92.1013 72.3553 90.0449C60.9929 87.9897 46.1345 82.7488 26.491 74.7546L21.9677 85.8695ZM108.743 6.5199C109.892 27.9287 110.915 44.3477 112.035 56.0266C112.595 61.8579 113.19 66.6308 113.861 70.3079C114.475 73.673 115.298 77.0624 116.767 79.3568C117.498 80.4994 119.251 82.7148 122.405 83.0366C125.586 83.3613 127.75 81.5157 128.691 80.5278C130.557 78.5682 131.956 75.442 133.107 72.4504C135.604 65.9615 138.574 55.442 142.208 41.5906L130.601 38.5456C126.936 52.5151 124.124 62.38 121.907 68.1416C121.363 69.5562 120.896 70.614 120.506 71.3677C120.082 72.1888 119.894 72.3645 120.001 72.2522C120.003 72.2499 121.282 70.8597 123.623 71.0987C124.759 71.2145 125.606 71.6847 126.125 72.0951C126.604 72.474 126.829 72.8181 126.874 72.8873C126.939 72.9896 126.772 72.7427 126.494 71.8073C126.236 70.9425 125.956 69.7445 125.666 68.1531C125.085 64.9698 124.528 60.5872 123.98 54.8808C122.887 43.4843 121.876 27.2988 120.726 5.87658L108.743 6.5199ZM130.442 39.403C128.701 55.0074 127.625 67.215 127.7 75.9565C127.737 80.3044 128.056 84.1665 128.88 87.3043C129.666 90.3002 131.228 93.838 134.714 95.765C138.373 97.7869 142.226 97.0105 145.117 95.7977C148.044 94.5693 151.128 92.4431 154.309 89.8454C160.72 84.6091 168.921 76.2758 179.128 65.3636L170.364 57.1663C160.113 68.1258 152.421 75.8932 146.718 80.5514C143.841 82.901 141.812 84.1706 140.474 84.7321C139.099 85.3092 139.532 84.7167 140.519 85.2623C141.334 85.713 140.974 86.1141 140.487 84.2587C140.037 82.5452 139.733 79.8412 139.699 75.8541C139.632 67.9255 140.621 56.3867 142.368 40.7333L130.442 39.403ZM169.756 57.9338C162.025 69.5157 156.267 78.5584 153.172 84.7821C151.725 87.693 150.388 90.8745 150.241 93.7021C150.163 95.2113 150.372 97.6033 152.162 99.6305C154.025 101.741 156.481 102.207 158.15 102.219C161.093 102.24 164.394 100.903 167.346 99.4767C170.602 97.9027 174.601 95.6116 179.327 92.6822C188.796 86.813 201.7 78.0562 218.358 66.4939L211.516 56.6358C194.844 68.2076 182.176 76.7981 173.005 82.4827C168.411 85.3301 164.824 87.3675 162.123 88.6726C159.119 90.125 158.093 90.2181 158.237 90.2192C158.506 90.2211 159.944 90.3138 161.158 91.6894C162.299 92.9812 162.228 94.2752 162.225 94.3236C162.22 94.4171 162.231 94.1246 162.53 93.2817C162.809 92.4932 163.257 91.4524 163.917 90.125C166.615 84.6996 171.933 76.2856 179.736 64.5961L169.756 57.9338ZM211.265 56.8198C193.511 70.5595 179.916 81.8012 170.946 91.3683C162.258 100.634 156.44 109.822 157.579 119.28C158.742 128.935 166.741 135.923 177.353 141.856C188.283 147.967 204.033 154.064 224.293 161.094L228.227 149.757C207.933 142.715 193.108 136.916 183.209 131.382C172.991 125.67 169.905 121.263 169.493 117.845C169.058 114.23 171.175 108.667 179.699 99.5762C187.941 90.7867 200.834 80.0661 218.609 66.3099L211.265 56.8198ZM227.536 149.563C208.57 145.434 193.914 142.382 183.217 140.545C177.873 139.627 173.406 138.993 169.825 138.686C166.428 138.394 163.198 138.331 160.679 138.932C159.435 139.228 157.544 139.869 156.049 141.493C154.244 143.454 153.838 145.915 154.258 148.022C154.612 149.802 155.515 151.245 156.244 152.23C157.031 153.294 158.004 154.332 159.043 155.327C163.079 159.191 170.219 164.356 179.501 170.722L186.288 160.826C176.836 154.344 170.545 149.726 167.342 146.66C166.572 145.922 166.122 145.405 165.888 145.089C165.596 144.695 165.878 144.933 166.027 145.68C166.241 146.754 166.044 148.354 164.878 149.621C164.021 150.552 163.196 150.668 163.463 150.604C163.963 150.485 165.524 150.361 168.8 150.642C171.892 150.907 175.981 151.478 181.186 152.372C191.589 154.159 206.007 157.157 224.983 161.288L227.536 149.563ZM185.469 160.355C174.183 154.992 165.222 150.98 158.574 148.745C155.275 147.636 152.183 146.837 149.471 146.638C146.916 146.451 143.368 146.701 140.658 149.293C137.845 151.985 137.571 155.6 137.817 158.202C138.071 160.888 138.987 163.887 140.205 167.01C142.666 173.315 147.034 181.774 152.836 192.376L163.363 186.615C157.53 175.958 153.526 168.135 151.385 162.648C150.302 159.874 149.861 158.099 149.764 157.072C149.659 155.961 150.041 156.925 148.953 157.965C147.97 158.905 147.218 158.505 148.594 158.606C149.813 158.695 151.787 159.123 154.75 160.12C160.628 162.096 168.985 165.808 180.319 171.193L185.469 160.355ZM162.908 185.906C156.255 176.994 150.867 170.135 146.795 166.103C144.921 164.249 142.553 162.181 139.925 161.329C138.424 160.842 136.261 160.568 134.04 161.612C131.85 162.641 130.682 164.448 130.083 165.858C129.01 168.383 128.935 171.557 129.063 174.403C129.203 177.527 129.67 181.415 130.395 186.015C131.848 195.232 134.441 207.931 137.988 224.334L149.717 221.797C146.166 205.38 143.642 192.986 142.249 184.146C141.551 179.718 141.162 176.336 141.051 173.865C140.928 171.114 141.206 170.365 141.126 170.552C141.024 170.793 140.514 171.828 139.144 172.472C137.746 173.129 136.568 172.855 136.223 172.743C135.905 172.64 136.525 172.822 138.352 174.631C141.681 177.927 146.548 184.05 153.292 193.085L162.908 185.906Z" fill="black" mask="url(#path-1-outside-1_2_53)"/>
</svg>
